<mxfile host="65bd71144e">
    <diagram id="8thfgTwgpfxkywvPwQI3" name="PÃ¡gina-1">
        <mxGraphModel dx="650" dy="409" grid="1" gridSize="10" guides="1" tooltips="1" connect="1" arrows="1" fold="1" page="1" pageScale="1" pageWidth="827" pageHeight="1169" math="0" shadow="0">
            <root>
                <mxCell id="0"/>
                <mxCell id="1" parent="0"/>
                <mxCell id="5" value="" style="edgeStyle=none;html=1;" parent="1" source="2" target="4" edge="1">
                    <mxGeometry relative="1" as="geometry"/>
                </mxCell>
                <mxCell id="2" value="Inicio" style="ellipse;whiteSpace=wrap;html=1;fillColor=#666600;" parent="1" vertex="1">
                    <mxGeometry x="250" width="120" height="80" as="geometry"/>
                </mxCell>
                <mxCell id="7" value="" style="edgeStyle=none;html=1;" parent="1" source="4" edge="1">
                    <mxGeometry relative="1" as="geometry">
                        <mxPoint x="310" y="310" as="targetPoint"/>
                    </mxGeometry>
                </mxCell>
                <mxCell id="4" value="ingrese su sueldo" style="shape=parallelogram;perimeter=parallelogramPerimeter;whiteSpace=wrap;html=1;fixedSize=1;fillColor=#006666;" parent="1" vertex="1">
                    <mxGeometry x="250" y="170" width="120" height="60" as="geometry"/>
                </mxCell>
                <mxCell id="12" style="edgeStyle=none;html=1;exitX=1;exitY=0.5;exitDx=0;exitDy=0;entryX=0.5;entryY=0;entryDx=0;entryDy=0;" parent="1" source="8" target="11" edge="1">
                    <mxGeometry relative="1" as="geometry">
                        <Array as="points">
                            <mxPoint x="500" y="375"/>
                        </Array>
                    </mxGeometry>
                </mxCell>
                <mxCell id="16" style="edgeStyle=none;html=1;exitX=0;exitY=0.5;exitDx=0;exitDy=0;entryX=0.417;entryY=-0.017;entryDx=0;entryDy=0;entryPerimeter=0;" parent="1" source="8" edge="1">
                    <mxGeometry relative="1" as="geometry">
                        <mxPoint x="100.03999999999996" y="468.98" as="targetPoint"/>
                        <Array as="points">
                            <mxPoint x="100" y="375"/>
                        </Array>
                    </mxGeometry>
                </mxCell>
                <mxCell id="8" value="sueldo &amp;gt; 945200&lt;br&gt;" style="rhombus;whiteSpace=wrap;html=1;fillColor=#990000;" parent="1" vertex="1">
                    <mxGeometry x="243.75" y="310" width="132.5" height="130" as="geometry"/>
                </mxCell>
                <mxCell id="15" style="edgeStyle=none;html=1;exitX=1;exitY=0.5;exitDx=0;exitDy=0;entryX=0.5;entryY=0;entryDx=0;entryDy=0;startArrow=none;" parent="1" source="10" target="14" edge="1">
                    <mxGeometry relative="1" as="geometry">
                        <mxPoint x="590" y="610" as="sourcePoint"/>
                        <Array as="points">
                            <mxPoint x="620" y="620"/>
                        </Array>
                    </mxGeometry>
                </mxCell>
                <mxCell id="18" style="edgeStyle=none;html=1;exitX=0;exitY=0.5;exitDx=0;exitDy=0;" parent="1" source="10" edge="1">
                    <mxGeometry relative="1" as="geometry">
                        <mxPoint x="360" y="720" as="targetPoint"/>
                        <Array as="points">
                            <mxPoint x="360" y="620"/>
                        </Array>
                    </mxGeometry>
                </mxCell>
                <mxCell id="10" value="deudas=0" style="rhombus;whiteSpace=wrap;html=1;fillColor=#990000;" parent="1" vertex="1">
                    <mxGeometry x="460" y="580" width="80" height="80" as="geometry"/>
                </mxCell>
                <mxCell id="13" value="" style="edgeStyle=none;html=1;" parent="1" source="11" target="10" edge="1">
                    <mxGeometry relative="1" as="geometry"/>
                </mxCell>
                <mxCell id="11" value="Cuantas deudas&amp;nbsp;&lt;br&gt;tiene?" style="shape=parallelogram;perimeter=parallelogramPerimeter;whiteSpace=wrap;html=1;fixedSize=1;fillColor=#006666;" parent="1" vertex="1">
                    <mxGeometry x="440" y="460" width="120" height="60" as="geometry"/>
                </mxCell>
                <mxCell id="14" value="se aprueba el prestamo&amp;nbsp;" style="shape=document;whiteSpace=wrap;html=1;boundedLbl=1;fillColor=#990099;" parent="1" vertex="1">
                    <mxGeometry x="560" y="720" width="120" height="80" as="geometry"/>
                </mxCell>
                <mxCell id="19" value="No se aprueba el&amp;nbsp;&lt;br&gt;prestamo&amp;nbsp;" style="shape=document;whiteSpace=wrap;html=1;boundedLbl=1;fillColor=#99004D;" parent="1" vertex="1">
                    <mxGeometry x="310" y="720" width="120" height="80" as="geometry"/>
                </mxCell>
                <mxCell id="20" value="No es apto para recibir el prestamo" style="shape=document;whiteSpace=wrap;html=1;boundedLbl=1;fillColor=#330066;" parent="1" vertex="1">
                    <mxGeometry x="50" y="470" width="120" height="80" as="geometry"/>
                </mxCell>
                <mxCell id="21" value="" style="endArrow=none;html=1;entryX=0.342;entryY=0.95;entryDx=0;entryDy=0;entryPerimeter=0;exitX=0.658;exitY=0.738;exitDx=0;exitDy=0;exitPerimeter=0;" parent="1" source="14" target="20" edge="1">
                    <mxGeometry width="50" height="50" relative="1" as="geometry">
                        <mxPoint x="640" y="830" as="sourcePoint"/>
                        <mxPoint x="140" y="550" as="targetPoint"/>
                        <Array as="points">
                            <mxPoint x="640" y="880"/>
                            <mxPoint x="91" y="880"/>
                        </Array>
                    </mxGeometry>
                </mxCell>
                <mxCell id="22" value="" style="endArrow=none;html=1;entryX=0.408;entryY=0.975;entryDx=0;entryDy=0;entryPerimeter=0;" parent="1" target="19" edge="1">
                    <mxGeometry width="50" height="50" relative="1" as="geometry">
                        <mxPoint x="359" y="880" as="sourcePoint"/>
                        <mxPoint x="390" y="800" as="targetPoint"/>
                    </mxGeometry>
                </mxCell>
                <mxCell id="23" value="" style="endArrow=classic;html=1;" parent="1" edge="1">
                    <mxGeometry width="50" height="50" relative="1" as="geometry">
                        <mxPoint x="360" y="870" as="sourcePoint"/>
                        <mxPoint x="360" y="940" as="targetPoint"/>
                    </mxGeometry>
                </mxCell>
                <mxCell id="24" value="FIn" style="ellipse;whiteSpace=wrap;html=1;fillColor=#666600;" parent="1" vertex="1">
                    <mxGeometry x="300" y="940" width="120" height="80" as="geometry"/>
                </mxCell>
                <mxCell id="28" value="true" style="text;html=1;align=center;verticalAlign=middle;resizable=0;points=[];autosize=1;strokeColor=#006EAF;fillColor=#1ba1e2;fontColor=#ffffff;" parent="1" vertex="1">
                    <mxGeometry x="550" y="600" width="40" height="20" as="geometry"/>
                </mxCell>
                <mxCell id="29" value="false" style="text;html=1;align=center;verticalAlign=middle;resizable=0;points=[];autosize=1;strokeColor=#6F0000;fillColor=#a20025;fontColor=#ffffff;" parent="1" vertex="1">
                    <mxGeometry x="400" y="600" width="40" height="20" as="geometry"/>
                </mxCell>
                <mxCell id="31" value="true" style="text;html=1;align=center;verticalAlign=middle;resizable=0;points=[];autosize=1;strokeColor=#006EAF;fillColor=#1ba1e2;fontColor=#ffffff;" parent="1" vertex="1">
                    <mxGeometry x="394" y="350" width="40" height="20" as="geometry"/>
                </mxCell>
                <mxCell id="32" value="false" style="text;html=1;align=center;verticalAlign=middle;resizable=0;points=[];autosize=1;strokeColor=#6F0000;fillColor=#a20025;fontColor=#ffffff;" parent="1" vertex="1">
                    <mxGeometry x="150" y="350" width="40" height="20" as="geometry"/>
                </mxCell>
            </root>
        </mxGraphModel>
    </diagram>
</mxfile>